<svg width="178" height="88" viewBox="0 0 178 88" fill="none" xmlns="http://www.w3.org/2000/svg">
<circle cx="30.8772" cy="30.8772" r="30.8772" fill="#F79C17"/>
<g filter="url(#filter0_d_1_246)">
<path d="M16.0731 19.8798V14.7657H46.5465V19.8798H34.261V54.1408H28.3393V19.8798H16.0731Z" fill="white"/>
<path d="M60.9757 54.7368C58.2072 54.7368 55.7911 54.1024 53.7275 52.8335C51.6639 51.5645 50.0617 49.7893 48.9209 47.5078C47.7802 45.2263 47.2098 42.5603 47.2098 39.5097C47.2098 36.4464 47.7802 33.7675 48.9209 31.4732C50.0617 29.1789 51.6639 27.3973 53.7275 26.1283C55.7911 24.8594 58.2072 24.225 60.9757 24.225C63.7443 24.225 66.1604 24.8594 68.224 26.1283C70.2876 27.3973 71.8898 29.1789 73.0305 31.4732C74.1713 33.7675 74.7416 36.4464 74.7416 39.5097C74.7416 42.5603 74.1713 45.2263 73.0305 47.5078C71.8898 49.7893 70.2876 51.5645 68.224 52.8335C66.1604 54.1024 63.7443 54.7368 60.9757 54.7368ZM60.995 49.9111C62.7894 49.9111 64.2762 49.4368 65.4554 48.4883C66.6346 47.5399 67.5062 46.2773 68.0702 44.7008C68.647 43.1243 68.9354 41.3875 68.9354 39.4905C68.9354 37.6063 68.647 35.876 68.0702 34.2995C67.5062 32.7101 66.6346 31.4348 65.4554 30.4734C64.2762 29.5121 62.7894 29.0315 60.995 29.0315C59.1877 29.0315 57.6881 29.5121 56.496 30.4734C55.3168 31.4348 54.4388 32.7101 53.8621 34.2995C53.2981 35.876 53.0161 37.6063 53.0161 39.4905C53.0161 41.3875 53.2981 43.1243 53.8621 44.7008C54.4388 46.2773 55.3168 47.5399 56.496 48.4883C57.6881 49.4368 59.1877 49.9111 60.995 49.9111Z" fill="white"/>
<path d="M99.8654 41.8938V24.6095H105.633V54.1408H99.9808V49.0267H99.6732C98.9938 50.6032 97.9043 51.917 96.4047 52.968C94.9179 54.0063 93.0658 54.5254 90.8484 54.5254C88.9514 54.5254 87.2723 54.1088 85.8111 53.2757C84.3627 52.4297 83.222 51.18 82.3888 49.5266C81.5685 47.8731 81.1584 45.8287 81.1584 43.3934V24.6095H86.907V42.7013C86.907 44.7136 87.4646 46.3158 88.5797 47.5078C89.6948 48.6998 91.1432 49.2958 92.9248 49.2958C94.0014 49.2958 95.0717 49.0267 96.1355 48.4883C97.2122 47.95 98.103 47.1361 98.808 46.0466C99.5258 44.9571 99.8782 43.5729 99.8654 41.8938Z" fill="white"/>
<path d="M113.357 54.1408V24.6095H118.914V29.3007H119.221C119.76 27.7113 120.708 26.4616 122.067 25.5516C123.438 24.6287 124.989 24.1673 126.72 24.1673C127.078 24.1673 127.501 24.1801 127.988 24.2057C128.488 24.2314 128.879 24.2634 129.161 24.3019V29.8005C128.931 29.7364 128.52 29.6659 127.931 29.589C127.341 29.4993 126.752 29.4545 126.162 29.4545C124.803 29.4545 123.592 29.7429 122.528 30.3196C121.477 30.8836 120.644 31.6719 120.029 32.6845C119.414 33.6842 119.106 34.825 119.106 36.1067V54.1408H113.357Z" fill="white"/>
<path d="M134.136 54.1408V24.6095H139.885V54.1408H134.136ZM137.039 20.0529C136.039 20.0529 135.181 19.7196 134.463 19.0531C133.758 18.3738 133.405 17.5663 133.405 16.6306C133.405 15.6821 133.758 14.8746 134.463 14.2081C135.181 13.5288 136.039 13.1891 137.039 13.1891C138.039 13.1891 138.891 13.5288 139.596 14.2081C140.314 14.8746 140.673 15.6821 140.673 16.6306C140.673 17.5663 140.314 18.3738 139.596 19.0531C138.891 19.7196 138.039 20.0529 137.039 20.0529Z" fill="white"/>
<path d="M160.058 54.7368C157.289 54.7368 154.873 54.1024 152.809 52.8335C150.746 51.5645 149.144 49.7893 148.003 47.5078C146.862 45.2263 146.292 42.5603 146.292 39.5097C146.292 36.4464 146.862 33.7675 148.003 31.4732C149.144 29.1789 150.746 27.3973 152.809 26.1283C154.873 24.8594 157.289 24.225 160.058 24.225C162.826 24.225 165.242 24.8594 167.306 26.1283C169.37 27.3973 170.972 29.1789 172.112 31.4732C173.253 33.7675 173.824 36.4464 173.824 39.5097C173.824 42.5603 173.253 45.2263 172.112 47.5078C170.972 49.7893 169.37 51.5645 167.306 52.8335C165.242 54.1024 162.826 54.7368 160.058 54.7368ZM160.077 49.9111C161.871 49.9111 163.358 49.4368 164.537 48.4883C165.717 47.5399 166.588 46.2773 167.152 44.7008C167.729 43.1243 168.017 41.3875 168.017 39.4905C168.017 37.6063 167.729 35.876 167.152 34.2995C166.588 32.7101 165.717 31.4348 164.537 30.4734C163.358 29.5121 161.871 29.0315 160.077 29.0315C158.27 29.0315 156.77 29.5121 155.578 30.4734C154.399 31.4348 153.521 32.7101 152.944 34.2995C152.38 35.876 152.098 37.6063 152.098 39.4905C152.098 41.3875 152.38 43.1243 152.944 44.7008C153.521 46.2773 154.399 47.5399 155.578 48.4883C156.77 49.4368 158.27 49.9111 160.077 49.9111Z" fill="white"/>
<path d="M70.9637 69.0988V69.9351H65.1382V69.0988H70.9637Z" fill="white"/>
<path d="M74.7182 75.8471V61.0815H75.5906V67.2458H75.6771C75.8502 66.77 76.0953 66.3326 76.4125 65.9337C76.7297 65.5347 77.1239 65.2151 77.5949 64.9748C78.066 64.7296 78.6163 64.6071 79.246 64.6071C80.1352 64.6071 80.9114 64.8546 81.5747 65.3497C82.238 65.8399 82.7523 66.5177 83.1176 67.3828C83.4829 68.2432 83.6656 69.2285 83.6656 70.3389C83.6656 71.4588 83.4829 72.4513 83.1176 73.3165C82.7523 74.1769 82.2404 74.8522 81.5819 75.3425C80.9235 75.8327 80.1472 76.0779 79.2532 76.0779C78.6235 76.0779 78.0732 75.9577 77.6021 75.7174C77.1311 75.4722 76.737 75.1502 76.4197 74.7513C76.1025 74.3475 75.855 73.9077 75.6771 73.4319H75.5762V75.8471H74.7182ZM75.5834 70.3316C75.5834 71.2737 75.7252 72.1173 76.0088 72.8623C76.2972 73.6025 76.7105 74.1889 77.2489 74.6215C77.7872 75.0493 78.4313 75.2632 79.1811 75.2632C79.9405 75.2632 80.5894 75.0469 81.1277 74.6143C81.6661 74.1769 82.077 73.5857 82.3606 72.8407C82.649 72.0956 82.7932 71.2593 82.7932 70.3316C82.7932 69.404 82.649 68.5701 82.3606 67.8298C82.077 67.0896 81.6661 66.5056 81.1277 66.0779C80.5894 65.6453 79.9405 65.429 79.1811 65.429C78.4313 65.429 77.7872 65.6429 77.2489 66.0707C76.7105 66.4936 76.2972 67.0752 76.0088 67.8154C75.7252 68.5508 75.5834 69.3896 75.5834 70.3316Z" fill="white"/>
<path d="M87.0109 80C86.7898 80 86.5711 79.976 86.3548 79.9279C86.1385 79.8798 85.9439 79.8173 85.7708 79.7404L86.0304 78.969C86.4822 79.142 86.8908 79.2045 87.2561 79.1564C87.6262 79.1084 87.953 78.9402 88.2366 78.6518C88.5202 78.3634 88.7605 77.9404 88.9576 77.3828L89.4623 75.9986L85.4031 64.7729H86.3476L89.866 74.7152H89.9381L93.4565 64.7729H94.401L89.729 77.7289C89.5512 78.2288 89.3277 78.647 89.0585 78.9834C88.7893 79.3199 88.4817 79.5722 88.1357 79.7404C87.7944 79.9135 87.4195 80 87.0109 80Z" fill="white"/>
<path d="M109.897 67.1593L109.082 67.3756C108.952 66.9719 108.767 66.6234 108.527 66.3302C108.286 66.037 107.984 65.8111 107.618 65.6525C107.258 65.4891 106.825 65.4073 106.321 65.4073C105.508 65.4073 104.843 65.6092 104.323 66.013C103.809 66.4167 103.552 66.943 103.552 67.5919C103.552 68.1206 103.727 68.558 104.078 68.9041C104.429 69.2454 104.965 69.5049 105.686 69.6828L107.388 70.1081C108.262 70.3244 108.921 70.6753 109.363 71.1608C109.805 71.6414 110.026 72.2398 110.026 72.956C110.026 73.5664 109.861 74.1072 109.529 74.5782C109.197 75.0493 108.738 75.417 108.152 75.6813C107.57 75.9457 106.893 76.0779 106.119 76.0779C105.085 76.0779 104.237 75.8375 103.574 75.3569C102.91 74.8714 102.485 74.1769 102.298 73.2732L103.141 73.057C103.3 73.7779 103.629 74.3283 104.129 74.708C104.633 75.0829 105.294 75.2704 106.112 75.2704C107.015 75.2704 107.743 75.0565 108.296 74.6287C108.854 74.2009 109.132 73.653 109.132 72.9849C109.132 72.4754 108.969 72.0452 108.642 71.6943C108.315 71.3434 107.82 71.0863 107.157 70.9229L105.391 70.4903C104.487 70.2692 103.809 69.9159 103.357 69.4304C102.906 68.9402 102.68 68.3369 102.68 67.6208C102.68 67.0247 102.836 66.5008 103.148 66.049C103.461 65.5972 103.891 65.2439 104.439 64.9892C104.987 64.7344 105.614 64.6071 106.321 64.6071C107.258 64.6071 108.022 64.8282 108.613 65.2704C109.205 65.7126 109.632 66.3422 109.897 67.1593Z" fill="white"/>
<path d="M113.95 68.6662V75.8471H113.071V61.0815H113.95V66.5249H114.037C114.296 65.9481 114.71 65.4891 115.277 65.1478C115.849 64.8017 116.534 64.6287 117.332 64.6287C118.077 64.6287 118.733 64.7873 119.3 65.1045C119.867 65.417 120.309 65.8664 120.627 66.4528C120.949 67.0344 121.11 67.7313 121.11 68.5436V75.8471H120.237V68.5797C120.237 67.6328 119.956 66.8733 119.394 66.3014C118.831 65.7294 118.089 65.4434 117.166 65.4434C116.546 65.4434 115.993 65.578 115.508 65.8471C115.022 66.1163 114.64 66.4936 114.361 66.9791C114.087 67.4597 113.95 68.0221 113.95 68.6662Z" fill="white"/>
<path d="M127.683 76.0851C127.044 76.0851 126.458 75.9577 125.924 75.703C125.395 75.4482 124.97 75.0757 124.648 74.5854C124.331 74.0952 124.172 73.4992 124.172 72.7974C124.172 72.336 124.254 71.9298 124.417 71.5789C124.581 71.2281 124.833 70.9253 125.174 70.6705C125.515 70.4158 125.953 70.2067 126.486 70.0433C127.02 69.875 127.657 69.7452 128.397 69.6539C128.959 69.5866 129.462 69.5217 129.904 69.4593C130.346 69.392 130.692 69.2886 130.942 69.1492C131.197 69.0098 131.324 68.7984 131.324 68.5148V68.0533C131.324 67.2459 131.069 66.6042 130.56 66.1283C130.05 65.6525 129.349 65.4146 128.455 65.4146C127.662 65.4146 126.994 65.59 126.45 65.9409C125.912 66.2869 125.535 66.734 125.318 67.2819L124.489 66.9719C124.701 66.4432 125.006 66.0034 125.405 65.6525C125.809 65.3016 126.27 65.0396 126.789 64.8666C127.313 64.6936 127.861 64.6071 128.433 64.6071C128.928 64.6071 129.399 64.6768 129.846 64.8161C130.298 64.9555 130.699 65.167 131.05 65.4506C131.406 65.7342 131.687 66.0971 131.894 66.5393C132.1 66.9767 132.204 67.5006 132.204 68.111V75.8471H131.324V73.85H131.259C131.067 74.2634 130.803 74.6407 130.466 74.982C130.135 75.3184 129.733 75.5876 129.262 75.7895C128.796 75.9865 128.27 76.0851 127.683 76.0851ZM127.77 75.2704C128.462 75.2704 129.075 75.1021 129.608 74.7657C130.147 74.4244 130.567 73.9582 130.87 73.367C131.173 72.7758 131.324 72.1053 131.324 71.3554V69.726C131.214 69.8222 131.053 69.9087 130.841 69.9856C130.634 70.0577 130.399 70.1226 130.135 70.1802C129.875 70.2331 129.601 70.2812 129.313 70.3244C129.029 70.3629 128.753 70.3989 128.484 70.4326C127.676 70.5287 127.018 70.6777 126.508 70.8796C126.003 71.0767 125.633 71.3362 125.398 71.6583C125.167 71.9803 125.052 72.3696 125.052 72.8262C125.052 73.5809 125.311 74.1769 125.83 74.6143C126.349 75.0517 126.996 75.2704 127.77 75.2704Z" fill="white"/>
<path d="M136.771 68.6662V75.8471H135.892V61.0815H136.771V66.5249H136.858C137.117 65.9481 137.531 65.4891 138.098 65.1478C138.67 64.8017 139.355 64.6287 140.153 64.6287C140.898 64.6287 141.554 64.7873 142.121 65.1045C142.688 65.417 143.13 65.8664 143.447 66.4528C143.77 67.0344 143.931 67.7313 143.931 68.5436V75.8471H143.058V68.5797C143.058 67.6328 142.777 66.8733 142.215 66.3014C141.652 65.7294 140.91 65.4434 139.987 65.4434C139.367 65.4434 138.814 65.578 138.329 65.8471C137.843 66.1163 137.461 66.4936 137.182 66.9791C136.908 67.4597 136.771 68.0221 136.771 68.6662Z" fill="white"/>
<path d="M147.57 75.8471V64.7729H148.428V66.5032H148.507C148.747 65.9361 149.153 65.4819 149.725 65.1406C150.297 64.7945 150.949 64.6215 151.679 64.6215C151.756 64.6215 151.833 64.6215 151.91 64.6215C151.987 64.6215 152.059 64.6239 152.126 64.6287V65.5155C152.069 65.5107 151.999 65.5035 151.917 65.4939C151.84 65.4794 151.744 65.4722 151.629 65.4722C151.014 65.4722 150.466 65.6044 149.985 65.8688C149.509 66.1331 149.134 66.4984 148.86 66.9647C148.586 67.4261 148.449 67.9548 148.449 68.5508V75.8471H147.57Z" fill="white"/>
<path d="M161.584 71.9178V64.7729H162.463V75.8471H161.584V74.0519H161.512C161.252 74.6239 160.832 75.0901 160.25 75.4506C159.673 75.8111 158.991 75.9913 158.202 75.9913C157.477 75.9913 156.835 75.8327 156.277 75.5155C155.72 75.1983 155.282 74.7489 154.965 74.1673C154.648 73.5809 154.489 72.8839 154.489 72.0764V64.7729H155.369V72.0404C155.369 72.9632 155.648 73.7106 156.205 74.2826C156.768 74.8498 157.493 75.1334 158.383 75.1334C158.959 75.1334 159.49 75.0036 159.976 74.744C160.461 74.4845 160.851 74.1144 161.144 73.6337C161.437 73.1483 161.584 72.5763 161.584 71.9178Z" fill="white"/>
<path d="M166.872 71.5213L166.858 70.2595H167.088L172.626 64.7729H173.772L168.689 69.8198L168.602 69.8558L166.872 71.5213ZM166.108 75.8471V61.0815H166.987V75.8471H166.108ZM172.878 75.8471L168.206 69.9423L168.84 69.3583L174.003 75.8471H172.878Z" fill="white"/>
</g>
<defs>
<filter id="filter0_d_1_246" x="12.0731" y="13.1891" width="165.93" height="74.8109" filterUnits="userSpaceOnUse" color-interpolation-filters="sRGB">
<feFlood flood-opacity="0" result="BackgroundImageFix"/>
<feColorMatrix in="SourceAlpha" type="matrix" values="0 0 0 0 0 0 0 0 0 0 0 0 0 0 0 0 0 0 127 0" result="hardAlpha"/>
<feOffset dy="4"/>
<feGaussianBlur stdDeviation="2"/>
<feComposite in2="hardAlpha" operator="out"/>
<feColorMatrix type="matrix" values="0 0 0 0 0 0 0 0 0 0 0 0 0 0 0 0 0 0 0.25 0"/>
<feBlend mode="normal" in2="BackgroundImageFix" result="effect1_dropShadow_1_246"/>
<feBlend mode="normal" in="SourceGraphic" in2="effect1_dropShadow_1_246" result="shape"/>
</filter>
</defs>
</svg>
